<?xml version="1.0" encoding="UTF-8" standalone="no"?>
<svg
   viewBox="0 0 400 400"
  
  
   data-date-format="longDate"
   version="1.1"
   id="svg3"
   sodipodi:docname="brasize.svg"
   inkscape:version="1.4 (86a8ad7, 2024-10-11)"
   xmlns:inkscape="http://www.inkscape.org/namespaces/inkscape"
   xmlns:sodipodi="http://sodipodi.sourceforge.net/DTD/sodipodi-0.dtd"
   xmlns="http://www.w3.org/2000/svg"
   xmlns:svg="http://www.w3.org/2000/svg" width="300" height="300">
  <sodipodi:namedview
     id="namedview1"
     pagecolor="#ffffff"
     bordercolor="#000000"
     borderopacity="0.25"
     inkscape:showpageshadow="2"
     inkscape:pageopacity="0.0"
     inkscape:pagecheckerboard="0"
     inkscape:deskcolor="#d1d1d1"
     inkscape:zoom="1"
     inkscape:cx="200"
     inkscape:cy="183.5"
     inkscape:window-width="3840"
     inkscape:window-height="2089"
     inkscape:window-x="-8"
     inkscape:window-y="1362"
     inkscape:window-maximized="1"
     inkscape:current-layer="g3" />
  <defs
     id="defs3" />
  <!-- Size Text -->
  <text
     x="200"
     y="280"
     font-family="Tangerine"
     text-anchor="middle"
     fill="black"
     id="text2"><tspan
       font-weight="400"
       font-size="180px"
       id="tspan1">32</tspan><tspan
       font-weight="700"
       font-size="150px"
       id="tspan2">kk</tspan></text>
  <!-- Bra Size arc text (replacing inner <svg> with <g>) -->
  <g transform="matrix(1.2841695,0,0,1.2841695,109.81465,23.68213)">
    <path
       d="m 24.925836,88.387528
q -0.652081,1.313736 -1.81022,2.897279 -1.068783,1.553468 -2.525933,2.839739 -1.42751,1.226557 -3.155337,1.708631 -1.757902,0.392718 -3.609076,-0.526124 -2.209466,-1.096683 -3.022802,-3.956489 -0.8730513,-2.889447 0.905353,-6.472364 1.304163,-2.627473 3.326215,-4.452053 1.962337,-1.854219 4.283401,-3.381528 2.290988,-1.616664 4.641257,-3.352759 -1.38433,-4.408488 -4.408873,-8.961259 -2.994902,-4.612488 -6.616597,-9.46166
Q 9.2814537,50.330413 5.8075238,45.033593 2.363234,39.677058 -0.03930188,33.721195
L -2.2016712,28.331104
q -1.4549744,2.031625 -2.8197232,4.331316 -1.424464,2.270051 -2.6989871,4.837808 -1.7487643,3.523202 -3.2264165,7.999673 -1.448012,4.416755 -2.239156,9.159551 -0.761504,4.683081 -0.540099,9.035335 0.251045,4.292538 1.870755,7.627021 1.61971,3.334483 5.0234812,5.023967 2.3288961,1.155963 4.2062289,0.822525 1.90697284,-0.393154 3.33448287,-1.61971
Q 2.1063298,74.232678 2.9066118,72.620365 4.240415,69.933177 3.9649516,67.489202 3.6297729,65.015586 2.4620612,63.319575 1.3239897,61.563849 0.06996873,60.941407
q -0.418007,-0.20748 -0.12160627,-0.804633 0.29640073,-0.597153 1.25184524,-0.122912 2.4483267,1.215243 3.4987835,3.597327 1.0504567,2.382085 0.8795785,5.125507 -0.1412381,2.683706 -1.2675609,4.952887 -1.0374025,2.090035 -3.1492451,3.79562 -2.08220245,1.645869 -4.8238839,2.071273 -2.7416814,0.425404 -5.7274457,-1.056599 -3.5829171,-1.778405 -5.3220581,-5.172168 -1.798856,-3.423403 -2.079976,-7.805296 -0.28112,-4.381894 0.539664,-9.184406 0.761069,-4.832151 2.268361,-9.368337 1.536933,-4.595901 3.404257,-8.357964 1.7191244,-3.463487 3.7076201,-6.569987 1.9584205,-3.195856 4.0676522,-5.795864 -0.3016224,-1.191695 -0.424099,-2.294469 -0.092836,-1.16249 -0.035732,-2.027274 0.027464,-0.805069 0.2349449,-1.223076 0.2371206,-0.477722 0.5954123,-0.299881 0.1791458,0.08892 0.3308273,0.982908 0.2118319,1.0727 0.4528688,1.936613 0.2109616,0.774559 0.3905426,1.012549 4.5758848,-5.320317 9.1901125,-7.718936 4.5841523,-2.487975 8.2865003,-0.650291 3.045479,1.511644 4.336973,4.757642 1.231778,3.216357 0.85603,7.27221 -0.346107,3.996138 -2.063926,7.906836 4.39935,-4.514813 8.717177,-6.31628 4.347467,-1.861182 8.587252,0.243263 3.16491,1.570924 4.813825,4.696621 1.678555,3.065982 2.018085,7.030303 0.309455,3.874967 -0.513505,7.932125 -0.763244,4.086798 -2.512009,7.61 -2.756526,5.553522 -6.025202,9.289861 -3.239036,3.676624 -7.611356,7.237298 1.484129,7.956108 -1.89484,14.763651
z

M 38.31053,57.07317
q 1.837685,-3.702347 2.214738,-7.310988 0.377053,-3.608641 -0.377438,-6.736949 -0.724851,-3.188023 -2.40123,-5.508652 -1.64674,-2.380343 -3.856205,-3.477026 -2.090035,-1.037403 -4.623366,-0.731864 -2.593046,0.275899 -5.240585,2.311005 -3.450868,2.603924 -5.411899,4.905356 -2.020747,2.271792 -3.388541,3.527988 -0.594978,0.448953 -0.803328,0.568818 -0.208351,0.119866 -0.327782,0.06059 -0.597153,-0.296401 -0.659044,-1.071394 -0.06189,-0.774993 0.32343,-1.551292 0.592802,-1.194306 1.453669,-2.478837 0.860868,-1.284531 1.63151,-2.837129 1.926605,-3.881493 1.767091,-7.458754 -0.159514,-3.57726 -1.747409,-6.226105 -1.558254,-2.70856 -3.827435,-3.834883 -2.567757,-1.274523 -5.604969,0.04618 -3.0969272,1.291058 -7.61353185,6.491945 2.63835105,5.030929 6.29186195,10.565739 3.5937956,5.505171 7.3667369,11.099261 3.713226,5.564451 6.859375,10.921856 3.146148,5.357406 4.978561,10.062729 0.420617,1.101904 0.631144,1.727392 0.150811,0.595847 0.451998,1.638472 3.271287,-2.841916 6.539963,-6.578255 3.20896,-3.765979 5.372685,-8.125195
z

M 22.481861,88.662991
q 1.83899,-3.255136 2.246989,-6.47628 0.377923,-3.3105 -0.227932,-6.588313 -1.427945,1.077486 -3.659219,2.72379 -2.231273,1.646304 -4.193609,3.500524 -2.022052,1.82458 -2.851975,3.496608 -1.096682,2.209465 -0.465538,3.936857 0.571429,1.697752 2.064311,2.438754 1.552598,0.770642 3.637846,0.168267 2.025533,-0.632014 3.449127,-3.200207
z

M 51.42613,26.395787
q -0.114866,-1.247275 -0.618387,-3.812822 -0.537319,-2.623011 -1.287564,-5.739531 -0.750244,-3.116521 -1.733743,-5.709131 -0.368387,-1.020818 -0.145266,-1.6934547 0.189321,-0.7301005 0.706496,-1.0342886 0.747031,-0.4393828 1.818516,-0.064138 1.037687,0.3177812 1.815057,1.6394507 0.946363,1.6089892 0.64545,3.3328442 -0.243449,1.690057 -1.014206,3.535575 0.608438,-0.280523 1.274339,-0.594845 0.632103,-0.371785 1.379134,-0.811168 2.700803,-1.588538 5.141349,-3.48806 0.31772,0.277186 0.419116,0.449578 0.439383,0.74703 0.655645,2.166697 0.273727,1.385869 0.354794,2.575681 0.07433,0.652369 0.195935,2.437087 0.0878,1.727253 0.297268,3.924352 0.175667,2.139634 0.58119,4.144073 0.429188,1.913177 1.105162,3.062455 0.878765,1.494061 2.028043,0.818088 1.091814,-0.642175 1.558444,-4.319741 0.432832,-3.73503 -0.249692,-9.366369 0.689566,-0.405584 0.993754,0.111591 0.280462,1.923311 0.385133,4.336733 0.162136,2.379623 -0.007,4.722049 -0.202915,2.284963 -0.88241,4.154146 -0.713293,1.81172 -2.14989,2.656687 -1.091814,0.642175 -2.690608,0.422391 -1.632593,-0.277247 -2.815547,-2.288483 -1.047759,-1.781381 -1.338354,-3.853418 -0.324393,-2.129501 -0.341201,-4.130542 -0.01681,-2.001041 -0.0032,-3.555903 0.01359,-1.554862 -0.391991,-2.244429 -0.608376,-1.03435 -2.200435,-0.716691 -1.534595,0.283859 -3.637093,1.443148 0.520389,3.251715 0.746785,4.820109 0.226396,1.568393 0.442658,2.98806 -0.919422,0.540779 -1.037687,-0.317781
z

m 35.854693,-0.402902
q -1.48332,0.388427 -2.863725,-0.145984 -1.315913,-0.551299 -1.991439,-3.130986 -0.287099,-1.096366 -0.411437,-2.097525 -0.05985,-1.018047 -0.08898,-2.181967 -0.327107,1.119376 -0.987442,2.808414 -0.660335,1.689039 -1.595527,3.381137 -0.8707,1.675211 -1.988601,2.932752 -1.053409,1.240654 -2.214268,1.544641 -1.676796,0.439092 -3.097099,-0.774017 -1.43719,-1.277601 -2.07894,-3.728304 -0.692415,-2.644178 -0.260807,-5.996185 0.431607,-3.352007 1.833658,-6.682479 1.40205,-3.3304727 3.719233,-5.797952 2.317183,-2.4674794 5.348314,-3.2612229 1.48332,-0.3884278 2.972761,-0.2271418 1.472552,0.096794 2.791526,0.9229499 0.569662,0.3332281 0.721655,0.9136575 0.101329,0.386953 -0.153579,0.7293625 -0.254908,0.3424094 -0.804622,0.3485304 -1.300499,-2.071456 -3.622217,-1.4634822 -1.096367,0.2870988 -2.329425,1.3680521 -1.504854,1.3588707 -2.980578,3.8816608 -1.42812,2.4414097 -2.51077,5.4125847 -1.035046,2.889794 -1.472775,5.692087 -0.437728,2.802293 0.102693,4.866043 0.557309,2.128241 2.169613,1.706037 1.418828,-0.371539 2.547496,-2.114303 1.193161,-1.759651 2.023963,-4.113559 0.878407,-2.435289 1.515733,-4.738533 0.637326,-2.303244 0.961372,-3.697477 0.511402,-1.994611 1.045814,-3.3750158 0.534411,-1.380405 2.082223,-1.7857209 0.709414,-0.1857698 1.469492,-0.1780631 0.760078,0.00771 1.500208,-0.3239355 -1.42812,2.4414098 -2.219025,5.4740163 -0.726413,3.015718 -0.824793,5.798063 -0.115268,2.717852 0.340713,4.45914 0.506645,1.934765 1.796488,1.597002 1.031875,-0.27021 1.888747,-1.735056 0.921364,-1.481734 1.56175,-3.510122 0.687991,-2.109767 1.182505,-4.16887 0.477625,-2.123595 0.703403,-3.629924 0.322461,-0.08444 0.532826,-0.07061 0.274857,-0.0031 0.393074,0.448384 0.0031,0.274857 -0.105975,0.647983 -0.06143,0.291745 -0.198123,1.085599 -0.245727,1.16698 -0.692637,3.144703 -0.44691,1.977722 -1.199392,4.104378 -0.769371,2.062164 -1.867324,3.659054 -1.097952,1.596891 -2.645764,2.002207
z

M 127.96248,36.95108
q -5.82383,-2.960996 -9.82062,-7.161942 -3.93736,-4.170732 -5.2167,-9.009347 -1.24913,-4.898041 0.96151,-9.98154 0.90844,-2.0809407 2.91977,-4.1246558 2.01133,-2.0437151 4.58672,-3.7258609 2.66503,-1.7113584 5.53354,-2.6461614 2.95816,-0.96401556 5.67059,-0.8563448 0.23871,-0.0282109 0.62549,0.0936477 0.4462,0.15207286 0.62448,0.24271559 0.35656,0.18128545 0.26592,0.35956596 -0.15107,0.29713417 -1.37483,0.49761573 -3.493,0.69208734 -6.39674,2.43165674 -2.96316,1.7093551 -5.27564,4.1982707 -2.31247,2.4889155 -3.82318,5.4602575 -1.78264,3.506183 -1.59618,6.816893 0.2761,3.281497 2.01567,6.185234 1.70935,2.963164 4.58504,5.397496 2.87569,2.434333 6.4413,4.247187 3.9816,2.024354 8.29756,3.096878 4.37538,1.102737 8.43043,1.070355 6.26186,-0.106999 11.07827,-2.51946 4.87584,-2.382246 6.80955,-6.185563 1.02729,-2.020513 1.07252,-4.315958 0.10467,-2.265232 -1.04163,-4.717758 -0.85218,-1.854252 -2.41847,-3.922007 -1.50687,-2.03754 -3.34109,-4.166725 -1.77479,-2.09897 -3.49016,-4.1677268 -1.68515,-2.1281832 -2.77503,-4.1032918 -1.56129,-2.8130943 -1.75376,-5.22939677 -0.13304,-2.38608823 0.8036,-4.22832013 1.11793,-2.1987929 3.42339,-3.6442331 2.36489,-1.4152259 5.40968,-1.9612503 3.13443,-0.5752371 6.41092,-0.105997 2.8595,0.4068083 5.95371,1.3816772 3.15362,1.0050832 5.94669,2.4251526 2.31764,1.1783555 4.2163,2.592415 1.98829,1.3848469 3.16982,3.0326071 1.53708,1.9781136 1.79098,4.1264945 0.28411,2.0889541 -0.5921,3.8123323 -1.20857,2.3770732 -4.25436,3.0721662 -1.0747,0.201483 -2.29745,0.252896 -1.19255,-0.008 -2.68122,-0.316165 -0.26792,-0.06143 -0.56506,-0.212501 -0.71312,-0.362571 -0.50162,-0.7785592 0.12086,-0.2377074 0.59827,-0.2941292 0.56706,-0.085634 1.36983,0.2477238 1.90366,0.6687196 3.36913,-0.00718 1.5249,-0.645682 2.28026,-2.1313529 0.78557,-1.5450977 0.47124,-3.5746249 -0.22468,-2.0587399 -1.85041,-4.15670881 -1.59551,-2.15739579 -4.92341,-3.84939329 -1.90166,-0.9668558 -4.43081,-1.7292234 -2.46972,-0.7321534 -5.62735,-1.1409649 -3.84255,-0.5326735 -7.15927,0.5481925 -3.25729,1.1110801 -4.52629,3.6070072 -0.78557,1.5450977 -0.5911,3.66326442 0.28412,2.08895408 1.87662,4.69355358 1.3568,2.1856067 3.24844,4.6431414 1.92186,2.398108 3.87293,4.885857 1.98128,2.428323 3.39651,4.793212 2.24119,3.682295 2.48908,6.725084 0.24789,3.042788 -0.9909,5.479288 -1.45028,2.852488 -4.65416,4.88819 -3.11423,2.00649 -7.14708,3.171988 -4.00263,1.106072 -8.26818,1.405375 -4.95146,0.324508 -10.36931,-0.934309 -5.38865,-1.169176 -10.26165,-3.646744
z

m 33.60662,20.226921
q -1.4087,-2.024855 -0.83054,-3.64527 0.63287,-1.658488 2.1652,-2.724524 0.82088,-0.571091 1.75599,-0.978005 1.0279,-0.390261 1.9297,-0.611577
l 11.90899,-2.843809
q 0.55203,-0.140404 0.88038,-0.368841 0.54726,-0.380727 0.73998,-0.920865 0.24744,-0.578211 0.33547,-0.801881
l 2.20345,2.933774
q 0.62582,0.782815 0.58063,1.301534 0.0476,0.535371 -0.28075,0.763808 -0.32836,0.228436 -1.47048,0.454519 -1.69415,0.366488 -4.31151,0.806768 -2.61737,0.440279 -5.34419,0.956705 -2.68874,0.571151 -4.95157,1.170841 -2.22475,0.654417 -3.20981,1.339726 -0.71144,0.494945 -0.97553,1.165955 -0.22603,0.725736 0.38314,1.601349 0.79952,1.149242 2.43659,1.634595 1.72987,0.502005 3.83805,0.497179 2.10818,-0.0048 4.32105,-0.326122 2.25093,-0.266569 4.09261,-0.654476 0.45687,0.65671 -0.0357,0.999365 -1.74888,0.40456 -4.10927,0.747274 -2.36039,0.342715 -4.74696,0.297582 -2.29378,-0.02848 -4.28539,-0.673243 -1.95354,-0.590038 -3.01957,-2.122361
z

m 25.66188,-10.625007
q -0.49495,-0.711436 -0.32842,-1.639421 0.20461,-0.87326 0.97077,-1.406278 0.93034,-0.647237 2.17479,-0.376021 1.29918,0.233143 1.94642,1.163482 0.53302,0.766161 0.42121,1.656074 -0.1118,0.889913 -0.87796,1.422932 -0.98507,0.685309 -2.28425,0.452166 -1.29918,-0.233143 -2.02256,-1.272934
z

m -8.25543,14.183187
q 1.16354,0.04164 2.41359,0.120755 1.31205,0.05459 3.35368,0.32247 2.42515,0.331256 3.84545,1.203336 1.4823,0.847561 2.25814,1.902844 0.77585,1.055284 1.07008,1.799209 0.613,1.549845 0.64492,2.899366 0.0319,1.34952 -0.0962,2.475585 -0.0416,1.163539 0.32616,2.093446 0.46587,1.177882 1.30649,1.490629 0.84061,0.312747 1.01225,0.746704 0.17164,0.433956 -0.0777,0.891044 -0.24936,0.457087 -0.8073,0.677765 -0.80592,0.318757 -1.4476,-0.216057 -0.64168,-0.534813 -2.14711,-1.803376 -1.61646,-1.36803 -3.89172,-2.045341 -2.27526,-0.677311 -4.77398,-1.194549 -2.47419,-0.455245 -4.98448,-1.182984 -2.44828,-0.752259 -4.53478,-2.221146 0.55978,2.502883 0.91046,4.658322 0.35067,2.15544 0.93915,3.643292 0.14711,0.371962 0.24519,0.619938 0.1846,0.285449 0.36919,0.570898 1.23154,1.663656 3.25883,2.439046 2.1138,0.812864 4.51443,1.082127 2.40064,0.269263 4.7032,0.290551 0.29424,0.743926 -0.26371,0.964603 -3.23108,-0.0125 -6.5718,-0.483476 -3.34072,-0.470977 -5.89865,-1.681712 -2.55793,-1.210736 -3.46516,-3.504507 -1.07887,-2.727727 -1.41659,-5.031674 -0.33772,-2.303947 -0.90168,-3.729805 -0.46587,-1.177882 -1.52716,-2.048573 -1.09877,-0.784178 -1.58917,-2.024054 -0.44135,-1.115888 0.48856,-1.483684 0.61993,-0.245198 1.17649,-0.106867 0.44552,0.03886 1.32083,0.983113 0.93731,0.919731 1.83714,1.925975 0.98635,1.043718 1.40596,1.379596 0.9993,0.895211 3.06406,1.584087 2.15127,0.72635 4.69903,1.367576 2.60975,0.616706 5.07099,1.220458 2.46124,0.603752 4.25351,1.328713 -0.19338,-1.213967 -0.44737,-2.762423 -0.25398,-1.548456 -0.74438,-2.788332 -0.71107,-1.797821 -1.59795,-2.952572 -0.82488,-1.179271 -2.56811,-1.780245 -1.7187,-0.53898 -4.99882,-0.675468 -0.29424,-0.743926 0.26371,-0.964603
z

m -4.66629,31.258147
q -0.26875,-2.451983 1.10381,-4.614407 1.37983,-2.096153 4.62705,-2.452075 2.71706,-0.297813 5.89622,0.560913 3.18642,0.924995 6.05512,2.622541 2.94224,1.756552 4.86774,4.026942 1.99904,2.329396 2.27506,4.847649 0.13801,1.259126 -0.46021,2.531883 -0.59822,1.272756 -2.3875,1.468876 -1.65675,0.1816 -3.78285,-0.85962 -2.12611,-1.041215 -4.10335,-3.171801 -0.83793,-0.914147 -1.66769,-2.365715 -0.82977,-1.451569 -1.46072,-2.924928 -0.56468,-1.480623 -0.67364,-2.474671 -0.83156,-0.244184 -2.19327,-0.430259 -1.35445,-0.119805 -2.74612,0.03273 -1.65674,0.181593 -2.9095,0.989566 -1.25276,0.807972 -1.05664,2.597257 0.2397,2.186904 1.70221,3.904448 1.46978,1.783814 3.5514,3.031102 2.08889,1.313558 4.19321,2.155958 2.10431,0.84241 3.56135,1.2863 0.0872,0.79524 -0.50926,0.86061 -1.94999,-0.65812 -4.26037,-1.54501 -2.30313,-0.82061 -4.39202,-2.134168 -2.01535,-1.254552 -3.50692,-3.237175 -1.41803,-1.923617 -1.72311,-4.706949
z

M 185.842,89.523057
q 0.10169,0.927778 1.0041,3.042044 0.96867,2.107003 2.68899,3.729222 1.71306,1.55595 3.60404,2.287607 1.95725,0.724393 3.21637,0.586382 1.45794,-0.159801 1.34172,-1.220118 -0.0872,-0.795238 -1.30002,-2.070684 -1.21285,-1.275447 -3.95628,-3.05379 -1.72849,-1.084797 -3.70753,-2.008 -1.97903,-0.923202 -2.89139,-1.292663
z"
       id="text3"
       fill="black"
       style="letter-spacing:0;text-anchor:middle"
       transform="translate(-18.235089,1)"
       aria-label="Bratags bra size label" />
  </g>
</svg>
